<mxfile host="Electron" modified="2023-11-21T10:40:09.554Z" agent="Mozilla/5.0 (Windows NT 10.0; Win64; x64) AppleWebKit/537.36 (KHTML, like Gecko) draw.io/22.0.2 Chrome/114.0.5735.289 Electron/25.8.4 Safari/537.36" etag="HeWl8nK0p4m8pNLO7Jom" version="22.0.2" type="device">
  <diagram name="Seite-1" id="obviji9GjlkgFleF4TSF">
    <mxGraphModel dx="913" dy="532" grid="1" gridSize="10" guides="1" tooltips="1" connect="1" arrows="1" fold="1" page="1" pageScale="1" pageWidth="827" pageHeight="1169" math="0" shadow="0">
      <root>
        <mxCell id="0" />
        <mxCell id="1" parent="0" />
        <mxCell id="UqiZIsJHh3jDnjcmos-R-1" value="Pap&amp;nbsp;&lt;b style=&quot;background-color: initial;&quot;&gt;Aufgabe_02_02_02_v01&lt;/b&gt;&lt;p style=&quot;margin-bottom:12.0pt;margin-top:0cm;mso-margin-bottom-alt:&lt;br/&gt;0cm;mso-margin-top-alt:0cm;mso-add-space:auto;line-height:normal&quot; class=&quot;MsoNormal&quot;&gt;&lt;b&gt;&lt;span style=&quot;font-size:20.0pt&quot; lang=&quot;DE&quot;&gt;&lt;/span&gt;&lt;/b&gt;&lt;/p&gt;" style="text;html=1;align=center;verticalAlign=middle;resizable=0;points=[];autosize=1;strokeColor=none;fillColor=none;" vertex="1" parent="1">
          <mxGeometry x="17.5" y="23" width="180" height="40" as="geometry" />
        </mxCell>
        <mxCell id="UqiZIsJHh3jDnjcmos-R-21" style="edgeStyle=orthogonalEdgeStyle;rounded=0;orthogonalLoop=1;jettySize=auto;html=1;entryX=0.5;entryY=0;entryDx=0;entryDy=0;" edge="1" parent="1" source="UqiZIsJHh3jDnjcmos-R-2" target="UqiZIsJHh3jDnjcmos-R-6">
          <mxGeometry relative="1" as="geometry" />
        </mxCell>
        <mxCell id="UqiZIsJHh3jDnjcmos-R-2" value="Start" style="strokeWidth=1;html=1;shape=mxgraph.flowchart.terminator;whiteSpace=wrap;" vertex="1" parent="1">
          <mxGeometry x="207.5" y="80" width="100" height="40" as="geometry" />
        </mxCell>
        <mxCell id="UqiZIsJHh3jDnjcmos-R-3" value="Ende" style="strokeWidth=1;html=1;shape=mxgraph.flowchart.terminator;whiteSpace=wrap;" vertex="1" parent="1">
          <mxGeometry x="208.75" y="610" width="100" height="40" as="geometry" />
        </mxCell>
        <mxCell id="UqiZIsJHh3jDnjcmos-R-6" value="anzahlRaeume = eingabe()" style="shape=parallelogram;perimeter=parallelogramPerimeter;whiteSpace=wrap;html=1;fixedSize=1;" vertex="1" parent="1">
          <mxGeometry x="165" y="140" width="185" height="30" as="geometry" />
        </mxCell>
        <mxCell id="UqiZIsJHh3jDnjcmos-R-13" style="edgeStyle=orthogonalEdgeStyle;rounded=0;orthogonalLoop=1;jettySize=auto;html=1;entryX=0.5;entryY=0;entryDx=0;entryDy=0;" edge="1" parent="1" source="UqiZIsJHh3jDnjcmos-R-8" target="UqiZIsJHh3jDnjcmos-R-9">
          <mxGeometry relative="1" as="geometry" />
        </mxCell>
        <mxCell id="UqiZIsJHh3jDnjcmos-R-14" value="true" style="edgeLabel;html=1;align=center;verticalAlign=middle;resizable=0;points=[];" vertex="1" connectable="0" parent="UqiZIsJHh3jDnjcmos-R-13">
          <mxGeometry x="-0.1" y="1" relative="1" as="geometry">
            <mxPoint as="offset" />
          </mxGeometry>
        </mxCell>
        <mxCell id="UqiZIsJHh3jDnjcmos-R-23" style="edgeStyle=orthogonalEdgeStyle;rounded=0;orthogonalLoop=1;jettySize=auto;html=1;entryX=0.5;entryY=0;entryDx=0;entryDy=0;" edge="1" parent="1" source="UqiZIsJHh3jDnjcmos-R-8" target="UqiZIsJHh3jDnjcmos-R-25">
          <mxGeometry relative="1" as="geometry">
            <mxPoint x="480" y="370" as="targetPoint" />
            <Array as="points">
              <mxPoint x="430" y="220" />
              <mxPoint x="430" y="540" />
            </Array>
          </mxGeometry>
        </mxCell>
        <mxCell id="UqiZIsJHh3jDnjcmos-R-24" value="false" style="edgeLabel;html=1;align=center;verticalAlign=middle;resizable=0;points=[];" vertex="1" connectable="0" parent="UqiZIsJHh3jDnjcmos-R-23">
          <mxGeometry x="-0.7079" y="-3" relative="1" as="geometry">
            <mxPoint as="offset" />
          </mxGeometry>
        </mxCell>
        <mxCell id="UqiZIsJHh3jDnjcmos-R-8" value="i &amp;lt;= anzahlRaueme" style="strokeWidth=1;html=1;shape=mxgraph.flowchart.decision;whiteSpace=wrap;" vertex="1" parent="1">
          <mxGeometry x="167.5" y="190" width="180" height="60" as="geometry" />
        </mxCell>
        <mxCell id="UqiZIsJHh3jDnjcmos-R-15" style="edgeStyle=orthogonalEdgeStyle;rounded=0;orthogonalLoop=1;jettySize=auto;html=1;entryX=0.5;entryY=0;entryDx=0;entryDy=0;" edge="1" parent="1" source="UqiZIsJHh3jDnjcmos-R-9" target="UqiZIsJHh3jDnjcmos-R-10">
          <mxGeometry relative="1" as="geometry" />
        </mxCell>
        <mxCell id="UqiZIsJHh3jDnjcmos-R-9" value="breite = eingabe()" style="shape=parallelogram;perimeter=parallelogramPerimeter;whiteSpace=wrap;html=1;fixedSize=1;" vertex="1" parent="1">
          <mxGeometry x="165" y="290" width="185" height="30" as="geometry" />
        </mxCell>
        <mxCell id="UqiZIsJHh3jDnjcmos-R-16" style="edgeStyle=orthogonalEdgeStyle;rounded=0;orthogonalLoop=1;jettySize=auto;html=1;entryX=0.5;entryY=0;entryDx=0;entryDy=0;" edge="1" parent="1" source="UqiZIsJHh3jDnjcmos-R-10" target="UqiZIsJHh3jDnjcmos-R-11">
          <mxGeometry relative="1" as="geometry" />
        </mxCell>
        <mxCell id="UqiZIsJHh3jDnjcmos-R-10" value="laenge= eingabe()" style="shape=parallelogram;perimeter=parallelogramPerimeter;whiteSpace=wrap;html=1;fixedSize=1;" vertex="1" parent="1">
          <mxGeometry x="165" y="340" width="185" height="30" as="geometry" />
        </mxCell>
        <mxCell id="UqiZIsJHh3jDnjcmos-R-17" style="edgeStyle=orthogonalEdgeStyle;rounded=0;orthogonalLoop=1;jettySize=auto;html=1;entryX=0.5;entryY=0;entryDx=0;entryDy=0;" edge="1" parent="1" source="UqiZIsJHh3jDnjcmos-R-11" target="UqiZIsJHh3jDnjcmos-R-12">
          <mxGeometry relative="1" as="geometry" />
        </mxCell>
        <mxCell id="UqiZIsJHh3jDnjcmos-R-11" value="flaeche = breite * laenge" style="rounded=0;whiteSpace=wrap;html=1;" vertex="1" parent="1">
          <mxGeometry x="182.5" y="390" width="150" height="30" as="geometry" />
        </mxCell>
        <mxCell id="UqiZIsJHh3jDnjcmos-R-19" style="edgeStyle=orthogonalEdgeStyle;rounded=0;orthogonalLoop=1;jettySize=auto;html=1;entryX=0.5;entryY=0;entryDx=0;entryDy=0;" edge="1" parent="1" source="UqiZIsJHh3jDnjcmos-R-12" target="UqiZIsJHh3jDnjcmos-R-18">
          <mxGeometry relative="1" as="geometry" />
        </mxCell>
        <mxCell id="UqiZIsJHh3jDnjcmos-R-12" value="gesamtFlaeche = gesamtFlaeche + flaeche" style="rounded=0;whiteSpace=wrap;html=1;" vertex="1" parent="1">
          <mxGeometry x="130" y="440" width="255" height="30" as="geometry" />
        </mxCell>
        <mxCell id="UqiZIsJHh3jDnjcmos-R-18" value="i++" style="rounded=0;whiteSpace=wrap;html=1;" vertex="1" parent="1">
          <mxGeometry x="197.5" y="490" width="120" height="30" as="geometry" />
        </mxCell>
        <mxCell id="UqiZIsJHh3jDnjcmos-R-20" style="edgeStyle=orthogonalEdgeStyle;rounded=0;orthogonalLoop=1;jettySize=auto;html=1;entryX=0;entryY=0.5;entryDx=0;entryDy=0;entryPerimeter=0;" edge="1" parent="1" source="UqiZIsJHh3jDnjcmos-R-18" target="UqiZIsJHh3jDnjcmos-R-8">
          <mxGeometry relative="1" as="geometry">
            <Array as="points">
              <mxPoint x="80" y="505" />
              <mxPoint x="80" y="220" />
            </Array>
          </mxGeometry>
        </mxCell>
        <mxCell id="UqiZIsJHh3jDnjcmos-R-22" style="edgeStyle=orthogonalEdgeStyle;rounded=0;orthogonalLoop=1;jettySize=auto;html=1;entryX=0.5;entryY=0;entryDx=0;entryDy=0;entryPerimeter=0;" edge="1" parent="1" source="UqiZIsJHh3jDnjcmos-R-6" target="UqiZIsJHh3jDnjcmos-R-8">
          <mxGeometry relative="1" as="geometry" />
        </mxCell>
        <mxCell id="UqiZIsJHh3jDnjcmos-R-25" value="ausgabe(gesamtFlaeche)" style="shape=parallelogram;perimeter=parallelogramPerimeter;whiteSpace=wrap;html=1;fixedSize=1;" vertex="1" parent="1">
          <mxGeometry x="170" y="560" width="177.5" height="30" as="geometry" />
        </mxCell>
        <mxCell id="UqiZIsJHh3jDnjcmos-R-28" style="edgeStyle=orthogonalEdgeStyle;rounded=0;orthogonalLoop=1;jettySize=auto;html=1;entryX=0.5;entryY=0;entryDx=0;entryDy=0;entryPerimeter=0;" edge="1" parent="1" source="UqiZIsJHh3jDnjcmos-R-25" target="UqiZIsJHh3jDnjcmos-R-3">
          <mxGeometry relative="1" as="geometry" />
        </mxCell>
      </root>
    </mxGraphModel>
  </diagram>
</mxfile>
